<?xml version="1.0" encoding="UTF-8"?>
<svg width="200" height="200" viewBox="255 385 90 75" xmlns="http://www.w3.org/2000/svg">
  <path d="M 297.50 394.53 C 290.53 400.09 286.70 408.91 286.00 421.00 M 286.00 421.00 C 285.83 431.90 289.78 440.65 297.84 447.26 M 286.00 421.00 C 279.42 416.05 273.09 413.71 267.00 414.00 M 277.09 402.00 C 283.58 403.28 287.10 406.07 287.64 410.38 M 297.50 394.51 C 304.47 400.06 308.30 408.89 309.00 420.98 M 309.00 420.98 C 315.58 416.02 321.91 413.69 328.00 413.98 M 297.50 447.53 M 328.00 413.98 C 327.13 436.98 316.96 448.32 297.50 447.99 M 317.91 401.98 C 311.42 403.25 307.90 406.05 307.36 410.36 M 297.50 447.53 C 300.38 445.41 302.98 442.31 305.30 438.25 M 299.06 447.92 C 290.10 448.49 282.43 445.90 276.04 440.15 M 267.00 414.00 C 266.97 419.71 268.25 425.91 270.84 432.58 M 277.09 402.00 C 275.63 404.13 274.93 406.47 275.01 409.00 M 317.91 401.98 C 318.84 403.76 319.38 405.54 319.54 407.33 M 309.00 420.98 C 308.98 424.63 308.72 427.46 308.25 429.48" 
        fill="none" 
        stroke="#BFA87C" 
        stroke-width="4.5"
        stroke-linecap="round" 
        stroke-linejoin="round"/>
</svg>