<?xml version="1.0" encoding="UTF-8"?>
<svg width="200" height="200" viewBox="250 380 100 80" xmlns="http://www.w3.org/2000/svg">
  <path d="M 297.50 395.24 C 290.17 399.82 286.43 408.40 286.27 421.00 M 286.27 421.00 C 286.35 432.20 290.09 440.93 297.50 447.21 M 287.92 408.65 C 285.13 404.67 281.60 402.59 277.34 402.41 M 286.27 421.00 C 279.56 415.10 273.20 412.65 267.19 413.65 M 297.50 395.24 C 304.83 399.82 308.57 408.40 308.73 421.00 M 276.95 414.93 M 307.08 408.65 C 309.87 404.67 313.40 402.59 317.66 402.41 M 297.50 447.21 M 308.73 421.00 C 315.44 415.10 321.80 412.65 327.81 413.65 M 297.50 447.21 C 317.50 446.24 327.60 435.06 327.81 413.65 M 267.19 413.65 C 267.18 421.24 268.66 427.85 271.63 433.48 M 318.05 414.93 M 297.50 447.21 C 288.88 447.12 281.56 444.30 275.54 438.75 M 317.66 402.41 C 319.13 404.49 319.91 406.56 320.00 408.61 M 277.34 402.41 C 275.80 404.63 275.02 406.90 274.99 409.22 M 308.73 421.00 C 308.70 424.72 308.27 428.17 307.43 431.35 M 297.50 447.21 C 300.95 444.28 303.61 440.82 305.47 436.82" 
        fill="none" 
        stroke="#BFA87C" 
        stroke-width="4" 
        stroke-linecap="round" 
        stroke-linejoin="round"/>
</svg>